%
M48
M72
T01C0.0236
T02C0.0315
T03C0.0354
T04C0.0394
T05C0.0400
%
T01
X7000Y2250
X8500Y2750
X7500Y3750
X11000Y2500
X13250Y4500
X10750Y5250
X9500Y6500
X12000Y6750
X10750Y7750
X9500Y8000
X7500Y8750
X11000Y9000
X12500Y8500
X13250Y8000
X15500Y9000
X14000Y9500
X14750Y9750
X15250Y9750
X15750Y9750
X15750Y10250
X14750Y11000
X14250Y11000
X13750Y11000
X16750Y12000
X18250Y11750
X18750Y11750
X19250Y11750
X20000Y12500
X21250Y13250
X19750Y13500
X16750Y13250
X14500Y14000
X11250Y12750
X9500Y10750
X6500Y11750
X4250Y12750
X2000Y12750
X750Y13250
X16500Y8250
X17750Y8250
X18000Y9000
X18500Y9000
X19500Y8750
X21250Y9000
X23500Y8000
X21750Y7000
X25250Y7000
X26000Y7500
X26500Y9750
X26750Y10250
X22750Y10250
X20500Y10500
X30500Y13750
X31350Y14650
X37500Y13250
X37250Y11250
X35750Y9500
X34500Y9000
X35500Y8000
X31000Y2500
X23000Y1250
X18750Y2500
X16000Y3000
X16500Y5000
X18250Y5500
X750Y3500
X22000Y16000
T02
X27957Y12581
X28744Y12581
X29531Y12581
X30319Y12581
X31106Y12581
X31894Y12581
X32681Y12581
X33469Y12581
X34256Y12581
X35043Y12581
X35043Y3919
X34256Y3919
X33469Y3919
X32681Y3919
X31894Y3919
X31106Y3919
X30319Y3919
X29531Y3919
X28744Y3919
X27957Y3919
X21250Y1500
X20250Y1500
X19250Y1500
X18250Y1500
T03
X2000Y2384
X2000Y4116
T04
X5750Y6500
X6750Y6500
X6750Y7500
X5750Y7500
X5750Y8500
X6750Y8500
X6750Y9500
X5750Y9500
X5750Y10500
X6750Y10500
X39250Y10000
X39250Y9000
X39250Y8000
X39250Y7000
X39250Y6000
X39250Y11000
T05
X37750Y15800
X36750Y15700
X35750Y15800
X34750Y15700
X33750Y15800
X32750Y15700
X31750Y15800
X30750Y15700
X29750Y15800
X28750Y15700
X27750Y15800
X26750Y15700
X25750Y15800
X24750Y15700
X23750Y15800
X14750Y15800
X13750Y15700
X12750Y15800
X11750Y15700
X10750Y15800
X9750Y15700
X8750Y15800
X7750Y15700
X6750Y15800
X6750Y1550
X7750Y1450
X8750Y1550
X9750Y1450
X10750Y1550
X11750Y1450
X12750Y1550
X13750Y1450
X14750Y1550
X15750Y1450
X24250Y1550
X25250Y1450
X26250Y1550
X27250Y1450
X28250Y1550
X29250Y1450
X30250Y1550
X31250Y1450
X32250Y1550
X33250Y1450
M30
